<svg width="160" height="160" viewBox="0 0 160 160" fill="none" xmlns="http://www.w3.org/2000/svg">
<path d="M79.7789 6.64876C60.5885 6.45376 42.1058 13.8861 28.3929 27.3123C14.6799 40.7385 6.85874 59.0601 6.64825 78.2503C6.7222 93.416 11.6008 108.168 20.5834 120.388C29.5659 132.607 42.1902 141.666 56.643 146.262C60.2995 146.927 61.6292 144.733 61.6292 142.805C61.6292 140.877 61.6292 136.622 61.6292 130.638C41.2856 134.96 36.9642 121.065 36.9642 121.065C35.6099 116.703 32.7308 112.974 28.8534 110.561C22.2051 106.173 29.3852 106.239 29.3852 106.239C31.6832 106.547 33.8818 107.37 35.8161 108.648C37.7505 109.926 39.3703 111.626 40.5543 113.619C42.6174 117.196 46.0027 119.821 49.9815 120.928C53.9603 122.034 58.2146 121.534 61.8286 119.536C62.2003 115.895 63.849 112.504 66.4824 109.962C50.2607 108.167 33.2412 102.051 33.2412 74.5937C33.0961 67.4315 35.7426 60.4936 40.6207 55.2474C38.3991 49.0982 38.6614 42.3253 41.352 36.3664C41.352 36.3664 47.5349 34.4384 61.2968 43.6794C73.2762 40.4872 85.8826 40.4872 97.8621 43.6794C111.823 34.4384 117.807 36.3664 117.807 36.3664C120.497 42.3253 120.76 49.0982 118.538 55.2474C123.53 60.3974 126.319 67.2887 126.317 74.4608C126.317 101.984 109.164 108.034 93.0753 109.829C94.837 111.54 96.1978 113.619 97.06 115.918C97.9221 118.217 98.2641 120.679 98.0615 123.126V142.738C98.0615 142.738 99.3912 146.927 103.048 146.195C117.459 141.571 130.041 132.51 138.996 120.308C147.951 108.106 152.82 93.3856 152.909 78.2503C152.699 59.0601 144.878 40.7385 131.165 27.3123C117.452 13.8861 98.9692 6.45376 79.7789 6.64876Z" fill="#E54243"/>
</svg>
