<svg width="160" height="163" viewBox="0 0 160 163" fill="none" xmlns="http://www.w3.org/2000/svg">
<path d="M159.069 73.8362C158.662 69.6844 155.162 66.591 151.01 66.591H89.5476C85.0702 66.591 81.4069 70.2543 81.4069 74.7317V88.6523C81.4069 93.1297 85.0702 96.793 89.5476 96.793H126.262C125.367 104.282 120.482 115.598 109.655 123.169C102.736 127.972 93.5365 131.31 81.4069 131.31C80.837 131.31 80.3486 131.31 79.7788 131.228C59.0201 130.577 41.4362 116.656 35.0864 97.5257C33.3769 92.397 32.4 87.0241 32.4 81.4071C32.4 75.79 33.3769 70.3357 35.005 65.2885C35.4935 63.8231 36.0633 62.3579 36.7146 60.8926C44.204 44.0413 60.5669 32.1558 79.7788 31.5859C80.2672 31.5045 80.837 31.5045 81.4069 31.5045C93.0481 31.5045 101.759 35.3306 107.864 39.5638C111.039 41.7617 115.272 41.2733 118.04 38.5869L129.356 27.5156C132.938 24.0151 132.612 18.0723 128.542 15.1416C115.598 5.61701 99.8049 0 81.4069 0C80.837 0 80.3486 8.14418e-05 79.7788 0.0814885C48.6 0.651338 21.8171 18.7237 8.71056 44.8554C3.17488 55.9267 0 68.3005 0 81.4071C0 94.5136 3.17488 106.887 8.71056 117.959H8.79196C21.8985 144.09 48.6814 162.163 79.7788 162.733C80.3486 162.814 80.837 162.814 81.4069 162.814C103.387 162.814 121.866 155.569 135.298 143.114C150.684 128.867 159.558 108.027 159.558 83.198C159.558 79.6975 159.395 76.6854 159.069 73.8362Z" fill="#E54243"/>
</svg>
