<svg width="160" height="160" viewBox="0 0 160 160" fill="none" xmlns="http://www.w3.org/2000/svg">
<path d="M79.6835 0C90.7401 0 101.098 2.09693 110.756 6.2908C120.415 10.4847 128.866 16.1718 136.11 23.3522C143.354 30.5326 149.073 38.9522 153.267 48.6108C157.461 58.2694 159.558 68.627 159.558 79.6835C159.558 90.7401 157.461 101.098 153.267 110.756C149.073 120.415 143.354 128.866 136.11 136.11C128.866 143.354 120.415 149.073 110.756 153.267C101.098 157.461 90.7401 159.558 79.6835 159.558C68.627 159.558 58.2694 157.461 48.6108 153.267C38.9522 149.073 30.5326 143.354 23.3522 136.11C16.1718 128.866 10.4847 120.415 6.2908 110.756C2.09693 101.098 0 90.7401 0 79.6835C0 68.627 2.09693 58.2694 6.2908 48.6108C10.4847 38.9522 16.1718 30.5326 23.3522 23.3522C30.5326 16.1718 38.9522 10.4847 48.6108 6.2908C58.2694 2.09693 68.627 0 79.6835 0ZM54.9016 59.858H34.8854V124.672H54.9016V59.858ZM44.7982 54.7109C47.5941 54.7109 49.9769 53.7578 51.9468 51.8515C53.9166 49.9452 54.9016 47.5941 54.9016 44.7982C54.9016 42.0022 53.9166 39.6511 51.9468 37.7448C49.9769 35.8385 47.5941 34.8854 44.7982 34.8854C42.0022 34.8854 39.6511 35.8385 37.7448 37.7448C35.8385 39.6511 34.8854 42.0022 34.8854 44.7982C34.8854 47.5941 35.8385 49.9452 37.7448 51.8515C39.6511 53.7578 42.0022 54.7109 44.7982 54.7109ZM124.672 87.1181C124.672 82.543 123.401 78.0632 120.86 73.6787C118.318 69.2942 115.014 65.9581 110.947 63.6706C107.261 61.6372 102.972 60.5569 98.0794 60.4298C93.1865 60.3028 88.7067 61.1288 84.6399 62.908V59.858H64.8143V124.672H84.6399V85.0212L93.0277 81.0179C94.0443 80.5096 95.4105 80.2554 97.1262 80.2554C98.8419 80.2554 100.208 80.5731 101.225 81.2086C101.987 81.5898 102.75 82.4159 103.512 83.6868C104.275 84.9576 104.656 86.1014 104.656 87.1181V124.672H124.672V87.1181Z" fill="#E54243"/>
</svg>
